<svg width="56" height="56" viewBox="0 0 56 56" fill="none" xmlns="http://www.w3.org/2000/svg">
<path d="M52.3283 41.9416C51.8684 38.8441 50.4613 35.1959 48.2584 31.3924C47.7285 30.4775 46.5577 30.1657 45.6427 30.6951C44.7278 31.225 44.4161 32.3959 44.9455 33.3108C48.7052 39.8028 49.723 45.4093 47.5382 47.5935C46.2334 48.8984 43.6538 49.0838 40.2746 48.1153C37.0677 47.196 33.3233 45.271 29.5509 42.6208C31.8675 40.75 34.1616 38.6822 36.3945 36.4493C39.2738 33.57 41.8797 30.5896 44.1399 27.5905C47.4015 23.2631 49.7629 19.1265 50.9688 15.6287C51.6162 13.7513 51.9236 12.0674 51.8837 10.6237C51.8345 8.8655 51.2832 7.448 50.2458 6.41003C49.2078 5.37206 47.7903 4.82081 46.0321 4.77159C44.5884 4.73112 42.9045 5.03901 41.0271 5.68651C37.5293 6.89237 33.3933 9.25378 29.0653 12.5153C26.0663 14.7756 23.0852 17.382 20.2065 20.2607C17.9736 22.4936 15.9059 24.7878 14.035 27.1043C11.3848 23.332 9.45985 19.5875 8.54055 16.3807C7.57204 13.0015 7.75743 10.4219 9.06282 9.11651C10.3961 7.78323 12.7597 7.86636 14.5075 8.17097C17.3272 8.66261 20.7167 10.0845 24.3091 12.284C25.2109 12.8358 26.3889 12.5525 26.9407 11.6507C27.4925 10.7489 27.2092 9.57097 26.3074 9.01917C22.3076 6.57081 18.4548 4.97339 15.1643 4.39972C10.3786 3.56573 7.73227 5.03245 6.35524 6.40948C4.70477 8.05995 3.10516 11.3122 4.86008 17.435C5.99157 21.3829 8.3136 25.8011 11.6031 30.2817C8.78446 34.1864 6.72985 37.8985 5.63227 41.0819C4.98477 42.9593 4.67743 44.6432 4.71735 46.0869C4.76657 47.8451 5.31782 49.2626 6.35524 50.3006C7.39321 51.3385 8.81071 51.8898 10.5689 51.939C10.6526 51.9412 10.7368 51.9423 10.8221 51.9423C12.2079 51.9423 13.8053 51.6339 15.5739 51.0241C18.7573 49.9265 22.4695 47.8719 26.3731 45.0528C30.8536 48.3422 35.2718 50.6642 39.2197 51.7957C41.1086 52.3371 42.7235 52.5592 44.1027 52.5592C47.1959 52.5592 49.1039 51.4419 50.2447 50.3006C51.5659 48.9804 52.9993 46.4588 52.3283 41.9416ZM22.9135 22.9683C25.667 20.2148 28.5124 17.7265 31.3698 15.5729C35.3812 12.5498 39.1519 10.3831 42.2751 9.30628C44.8142 8.43073 46.7819 8.36018 47.5393 9.11761C48.2962 9.87448 48.2256 11.8421 47.3506 14.3813C46.2738 17.5045 44.1071 21.2752 41.084 25.2865C38.9304 28.1439 36.4421 30.9893 33.6886 33.7428C31.3102 36.1212 28.863 38.3021 26.3988 40.2397L26.3577 40.2069C26.3151 40.1725 26.2724 40.1375 26.2298 40.1025C26.1461 40.0346 26.0624 39.9663 25.9793 39.8974C25.9323 39.8585 25.8847 39.8197 25.8377 39.7803C25.7567 39.7136 25.6763 39.6464 25.5954 39.5791C25.5495 39.5408 25.5035 39.5025 25.4576 39.4637C25.3684 39.3888 25.2793 39.3133 25.1902 39.2378C25.1546 39.2072 25.1185 39.1771 25.083 39.1465C24.9594 39.041 24.8363 38.9354 24.7133 38.8288C24.6859 38.8053 24.6586 38.7812 24.6313 38.7577C24.5345 38.6735 24.4382 38.5892 24.3414 38.5045C24.2977 38.4662 24.2545 38.4279 24.2107 38.3891C24.1298 38.3174 24.0488 38.2458 23.9679 38.1736L23.8295 38.05C23.7486 37.9773 23.6671 37.904 23.5862 37.8307C23.5435 37.7919 23.5009 37.7536 23.4582 37.7148C23.3598 37.6251 23.2613 37.5349 23.1634 37.4441C23.1394 37.4222 23.1159 37.4003 23.0918 37.3785C22.9704 37.2664 22.849 37.1532 22.7281 37.0394C22.6942 37.0077 22.6603 36.9754 22.6264 36.9437C22.5389 36.8611 22.4514 36.7785 22.3639 36.6954C22.3207 36.6539 22.277 36.6128 22.2338 36.5713C22.1545 36.4953 22.0757 36.4192 21.9964 36.3432C21.9527 36.3006 21.9089 36.2585 21.8646 36.2158C21.782 36.1354 21.6995 36.055 21.6169 35.9741C21.5791 35.9369 21.5409 35.8997 21.5031 35.8625C21.3839 35.745 21.2647 35.6268 21.1466 35.5087C21.0279 35.39 20.9103 35.2714 20.7927 35.1521C20.7556 35.1144 20.7184 35.0761 20.6812 35.0384C20.6002 34.9564 20.5198 34.8738 20.4395 34.7912C20.3968 34.7474 20.3541 34.7037 20.312 34.6594C20.236 34.5807 20.16 34.5019 20.0845 34.4226C20.043 34.3789 20.0014 34.3357 19.9598 34.2919C19.8773 34.2055 19.7952 34.1185 19.7132 34.0316C19.6804 33.9971 19.6476 33.9627 19.6153 33.9277C19.5021 33.8074 19.3895 33.6865 19.2779 33.5657C19.2544 33.5405 19.2314 33.5148 19.2079 33.4896C19.1189 33.3934 19.0303 33.2968 18.9421 33.1998C18.9022 33.156 18.8628 33.1123 18.8234 33.0691C18.7513 32.9892 18.6791 32.91 18.6074 32.8301C18.5648 32.7831 18.5227 32.7355 18.4806 32.6879C18.41 32.6086 18.3395 32.5299 18.2695 32.4506C18.2295 32.4052 18.1891 32.3603 18.1497 32.315C18.0677 32.222 17.9867 32.1285 17.9052 32.0355L17.8254 31.9442C17.7193 31.8222 17.6143 31.6997 17.5098 31.5767C17.4781 31.5395 17.4464 31.5023 17.4152 31.4651C17.3409 31.3776 17.267 31.2901 17.1932 31.2026L17.0751 31.0615C17.0089 30.9822 16.9427 30.9024 16.8766 30.8231C16.8366 30.7749 16.7973 30.7268 16.7573 30.6787C16.689 30.5961 16.6217 30.513 16.5539 30.4299C16.5189 30.3867 16.4834 30.344 16.4489 30.3008L16.4161 30.2598C18.3542 27.7939 20.5352 25.3467 22.9135 22.9683ZM14.3265 47.4049C11.7873 48.2804 9.81969 48.351 9.06227 47.5935C8.3054 46.8367 8.37594 44.8685 9.25094 42.3299C10.1462 39.7322 11.7961 36.6872 14.0651 33.4278C14.0831 33.4497 14.1017 33.471 14.1198 33.4929C14.2713 33.6745 14.4238 33.856 14.5781 34.0365C14.583 34.0425 14.5879 34.048 14.5928 34.054C14.7427 34.2296 14.8941 34.4051 15.0467 34.5801C15.0894 34.6293 15.132 34.678 15.1752 34.7267C15.3092 34.8798 15.4443 35.0324 15.5799 35.185C15.6062 35.2145 15.6324 35.2446 15.6592 35.2741C15.8184 35.4524 15.9791 35.6296 16.141 35.8067C16.1809 35.8505 16.2209 35.8937 16.2608 35.9375C16.3926 36.0807 16.5249 36.224 16.6578 36.3667C16.6972 36.4094 16.7371 36.4521 16.7765 36.4942C16.9411 36.6697 17.1063 36.8447 17.2731 37.0192C17.3031 37.0503 17.3332 37.0821 17.3633 37.1132C17.5044 37.2603 17.646 37.4069 17.7888 37.5529L17.9266 37.694C18.2674 38.0424 18.6122 38.3869 18.9607 38.7276L19.1045 38.8682C19.2489 39.0087 19.3933 39.1487 19.5382 39.2876C19.5716 39.3199 19.6049 39.3521 19.6383 39.3839C19.8116 39.5496 19.9856 39.7136 20.16 39.8771C20.2043 39.9187 20.2486 39.9597 20.2929 40.0007C20.4334 40.132 20.5745 40.2621 20.7156 40.3918C20.761 40.4333 20.8059 40.4749 20.8513 40.5159C21.0273 40.6767 21.204 40.8364 21.3812 40.9949C21.4123 41.0228 21.4435 41.0502 21.4747 41.0781C21.6256 41.2126 21.7771 41.346 21.9286 41.4789C21.9778 41.5221 22.0276 41.5653 22.0773 41.6085C22.2518 41.7606 22.4268 41.9115 22.6018 42.0614C22.6078 42.0663 22.6138 42.0718 22.6198 42.0767C22.8009 42.2309 22.9824 42.3835 23.164 42.5355C23.1853 42.5535 23.2066 42.5716 23.2285 42.5896C19.9697 44.8597 16.9241 46.5096 14.3265 47.4049Z" fill="#8E94FF"/>
</svg>
