<svg width="56" height="56" viewBox="0 0 56 56" fill="none" xmlns="http://www.w3.org/2000/svg">
<g clip-path="url(#clip0_431_16070)">
<path d="M55.4505 35.5131L46.8141 26.7674C46.4861 26.434 46.0379 26.2481 45.5678 26.2481H29.7107V20.9898H50.7059C53.5975 20.9898 55.9534 18.6339 55.9534 15.7423V5.24744C55.9534 2.35588 53.5975 0 50.7059 0H10.574C10.1093 0 9.66658 0.185847 9.33862 0.508345L0.538226 9.27047C0.210261 9.59844 0.0244141 10.0467 0.0244141 10.5113C0.024414 10.9759 0.210261 11.4241 0.543692 11.7521L9.34408 20.4814C9.67205 20.8039 10.1148 20.9898 10.574 20.9898H26.2179V26.2481H5.27185C2.38029 26.2481 0.0244141 28.604 0.0244141 31.4956V41.9904C0.0244141 44.882 2.38029 47.2379 5.27185 47.2379H26.2179V54.1962C26.2179 55.1637 26.9995 55.9453 27.967 55.9453C28.9345 55.9453 29.7162 55.1637 29.7162 54.1962V47.2379H45.5733C46.0434 47.2379 46.4916 47.052 46.8195 46.7186L55.4559 37.9729C56.1228 37.2896 56.1228 36.1964 55.4505 35.5131ZM4.25516 10.5058L11.2955 3.49829H50.7059C51.6679 3.49829 52.4551 4.28541 52.4551 5.24744V15.7423C52.4551 16.7043 51.6679 17.4915 50.7059 17.4915H11.2955L4.25516 10.5058ZM44.8408 43.7396H5.27185C4.30982 43.7396 3.52271 42.9525 3.52271 41.9904V31.4956C3.52271 30.5335 4.30982 29.7464 5.27185 29.7464H44.8408L51.7499 36.743L44.8408 43.7396Z" fill="#8E94FF"/>
</g>
<defs>
<clipPath id="clip0_431_16070">
<rect width="56" height="56" fill="white"/>
</clipPath>
</defs>
</svg>
