<svg width="60" height="60" viewBox="0 0 60 60" fill="none" xmlns="http://www.w3.org/2000/svg">
<path opacity="0.1" d="M47.25 24C43.875 30.375 37.5 34.875 30 34.875C22.5 34.875 16.125 30.375 12.75 24C10.875 27 10.125 30.375 10.125 33.75C10.125 45 19.125 55.125 30 55.125C40.875 55.125 49.875 45 49.875 33.75C49.875 30.375 49.125 27 47.25 24Z" fill="white"/>
<path d="M30 55.125C19.125 55.125 10.125 45 10.125 33.75C10.125 26.25 15.75 19.125 20.25 14.25C22.125 11.625 24.375 9.375 27 7.5C27.75 6.75 28.5 6.375 28.875 6C29.625 5.625 30.375 5.625 31.125 6C31.5 6.375 32.25 6.75 33 7.5C35.625 9.75 37.875 11.625 39.75 13.875C44.625 18.75 49.875 26.25 49.875 33.75C49.875 45 40.875 55.125 30 55.125ZM30 9.75C29.625 9.75 29.625 10.125 29.25 10.5C27 12.375 24.75 14.25 22.875 16.5C18.75 21 13.875 27.375 13.875 33.75C13.875 43.5 21.375 51.375 30 51.375C38.625 51.375 46.125 43.125 46.125 33.75C46.125 27.75 41.25 21 37.125 16.5C35.25 14.25 33 12.375 30.75 10.5C30.375 10.125 30.375 9.75 30 9.75Z" fill="#8E94FF"/>
</svg>
