<svg width="110" height="110" viewBox="0 0 110 110" fill="none" xmlns="http://www.w3.org/2000/svg">
<path d="M54.3352 17.0004C49.228 16.9978 44.1728 18.0253 39.4718 20.0214C39.2901 20.0516 39.1217 20.1358 38.9884 20.2631C30.2679 24.1019 23.2806 31.0381 19.3778 39.7303C15.4751 48.4225 14.9342 58.253 17.8597 67.3209C20.7852 76.3888 26.9693 84.0498 35.216 88.8222C43.4627 93.5947 53.1862 95.1396 62.5061 93.1583C71.8259 91.1769 80.0799 85.8099 85.6719 78.0954C91.2639 70.3808 93.7966 60.8667 92.7802 51.3929C91.7638 41.9192 87.2705 33.1589 80.1692 26.8061C73.068 20.4534 63.8633 16.9596 54.3352 17.0004ZM88.1707 55.6695V56.5154C80.0816 54.5391 71.6455 54.4564 63.5192 56.2737C62.5524 53.9777 61.344 51.5609 60.1356 49.1441C60.0148 48.9024 59.8939 48.7815 59.7731 48.5399C72.2197 43.7062 77.4159 37.3016 79.591 33.3139C85.154 39.4257 88.2164 47.4052 88.1707 55.6695ZM75.8449 29.5678C74.7574 32.2263 70.6488 39.1143 57.3563 44.0687C53.4905 36.8216 49.0876 29.874 44.1846 23.2841C47.4703 22.2546 50.8921 21.725 54.3352 21.7132C62.1944 21.7837 69.7897 24.5573 75.8449 29.5678ZM39.5926 25.2175C44.5583 31.6363 48.9649 38.4687 52.7643 45.6397C42.5285 48.8082 31.7911 50.0376 21.104 49.2649C22.1125 44.0984 24.3076 39.2369 27.5161 35.0637C30.7246 30.8906 34.8588 27.5199 39.5926 25.2175ZM20.4998 55.6695V54.0985C21.9498 54.2194 24.2458 54.4611 27.146 54.4611C36.6132 54.3807 46.0176 52.9151 55.0603 50.1108C55.3093 50.4879 55.5122 50.8937 55.6645 51.3192C56.7521 53.3735 57.7188 55.4278 58.6855 57.4821C56.5332 58.1286 54.4326 58.9365 52.4018 59.8989C38.6259 66.1826 32.1005 75.004 29.8045 78.9918C23.8845 72.6618 20.5629 64.3361 20.4998 55.6695ZM33.5506 82.2545C34.759 79.9585 40.4385 70.6538 54.4561 64.2492C56.456 63.3452 58.5151 62.5782 60.619 61.9532C63.8333 69.9933 66.0648 78.3921 67.2652 86.9673C63.1704 88.6763 58.7722 89.5395 54.3352 89.505C46.7996 89.4315 39.4969 86.884 33.5506 82.2545ZM71.8572 84.5505C70.5563 76.4011 68.3681 68.4185 65.3318 60.7448C72.7365 59.2896 80.372 59.4959 87.6874 61.349C86.858 66.1222 85.0161 70.6626 82.2856 74.6646C79.5551 78.6665 75.9992 82.0374 71.8572 84.5505Z" fill="white"/>
</svg>
