<svg width="100" height="100" viewBox="0 0 100 100" fill="none" xmlns="http://www.w3.org/2000/svg">
<path d="M76.9443 34.8634C76.1899 33.5231 75.2963 32.6369 74.5639 32.0802V27.0338C74.6738 26.0817 74.8788 22.9176 73.0185 21.0573C72.3227 20.3615 71.0702 19.5851 69.1 19.8561C66.5951 20.2003 63.79 21.4894 61.5414 22.5294C60.7138 22.9103 59.6005 23.423 59.1757 23.5402C58.7875 23.5182 57.9672 23.3864 57.2421 23.2765C55.5282 23.0128 53.1918 22.6466 50.9653 22.6466C48.7387 22.6466 46.4023 23.0128 44.6884 23.2765C43.956 23.3864 43.143 23.5182 42.7548 23.5402C42.33 23.423 41.2167 22.9103 40.3891 22.5294C38.1406 21.4894 35.3354 20.2003 32.8305 19.8561C30.853 19.5851 29.6078 20.3615 28.912 21.0573C27.0517 22.9176 27.2568 26.0817 27.3666 27.0338V32.0802C26.6342 32.6369 25.7406 33.5231 24.9863 34.8634C23.1698 38.0934 22.8769 42.5099 24.1147 47.9958C25.3525 53.4743 28.6044 57.8908 33.5116 60.7838C35.0571 61.692 36.5365 62.3146 37.7524 62.7321C36.8222 65.0539 36.2655 68.0495 36.0824 71.6823C31.4242 71.6237 28.0405 70.5324 26.2826 68.5255C24.5688 66.57 24.8398 64.2995 24.8544 64.2042V64.2262C24.8617 64.1896 24.8691 64.153 24.8691 64.109C25.0302 62.9079 24.1879 61.8019 22.9794 61.6408C21.7782 61.4796 20.6723 62.3219 20.5112 63.5304C20.5112 63.5451 20.5112 63.5597 20.5038 63.5744C20.4745 63.7941 20.3427 64.7975 20.5551 66.1818C20.8481 68.1007 21.6537 69.8805 22.8989 71.3307C25.5356 74.4069 29.9594 75.9962 36.0458 76.0695C36.1044 77.9079 36.2289 79.1383 36.2363 79.2189C36.3608 80.4274 37.4374 81.3063 38.6459 81.1818C39.8544 81.0573 40.7333 79.9806 40.6088 78.7721C40.6088 78.7428 40.3012 75.7326 40.4623 72.1657C40.6528 67.7711 41.4731 64.3874 42.7548 62.6222C43.2089 61.9997 43.3114 61.194 43.0185 60.4835C42.7255 59.7731 42.0883 59.2751 41.3339 59.1579C41.2167 59.1359 38.5287 58.6525 35.6137 56.9093C31.7905 54.6168 29.3661 51.2917 28.3993 47.0143C27.2201 41.8068 27.8866 38.8625 28.6557 37.3097C29.3442 35.9181 30.2084 35.4201 30.3769 35.3322C31.2704 35.0319 31.7538 34.2409 31.7538 33.2887V26.8874C31.7538 26.7848 31.7465 26.6896 31.7319 26.5871C31.6073 25.6056 31.7612 24.4923 31.9809 24.1847C32.0248 24.1774 32.0981 24.1774 32.2226 24.1994C34.0829 24.4557 36.6611 25.6422 38.5434 26.5138C40.6235 27.4733 41.6708 27.9347 42.6376 27.9347C43.2968 27.9347 44.1611 27.8029 45.3549 27.6125C47.0102 27.3561 49.0756 27.0338 50.9579 27.0338C52.8403 27.0338 54.9057 27.3561 56.561 27.6125C57.7548 27.7956 58.6191 27.9347 59.2782 27.9347C60.245 27.9347 61.2924 27.4733 63.3725 26.5138C65.2548 25.6496 67.8329 24.4557 69.6933 24.1994C69.8105 24.1847 69.891 24.1847 69.9277 24.1847C70.0009 24.3019 70.1547 24.6535 70.206 25.3346C70.2572 25.9792 70.1913 26.5358 70.184 26.5871C70.1694 26.6896 70.162 26.7775 70.162 26.8874V33.2887C70.162 34.2336 70.6454 35.0319 71.539 35.3322C71.7148 35.4201 72.579 35.9181 73.2602 37.3097C74.0292 38.8625 74.6957 41.8068 73.5165 47.0143C72.5497 51.2843 70.1254 54.6168 66.3022 56.9093C63.3945 58.6525 60.6991 59.1359 60.582 59.1579C59.8276 59.2751 59.1904 59.7804 58.8974 60.4835C58.6044 61.194 58.707 61.9997 59.1611 62.6222C61.893 66.3576 61.6366 75.5421 61.3071 78.7648C61.1825 79.9733 62.0614 81.0499 63.2699 81.1745C63.3432 81.1818 63.4238 81.1891 63.497 81.1891C64.6103 81.1891 65.5624 80.3468 65.6796 79.2189C65.6943 79.0871 66.0165 75.9083 65.8481 72.0338C65.6869 68.2326 65.123 65.1198 64.1635 62.7174C65.372 62.2999 66.8588 61.6774 68.4042 60.7692C73.3188 57.8761 76.5634 53.4596 77.8012 47.9811C79.0536 42.5099 78.7607 38.0861 76.9443 34.8634Z" fill="white"/>
</svg>
