<svg width="110" height="110" viewBox="0 0 110 110" fill="none" xmlns="http://www.w3.org/2000/svg">
<path d="M44.772 90.2292C28.3558 90.2292 15 76.8736 15 60.4574C15 44.0413 28.3558 30.6857 44.772 30.6857C47.7146 30.6857 50.6189 31.1149 53.415 31.9625L86.571 20.1089C86.8764 19.9997 87.205 19.972 87.5243 20.0286C87.8437 20.0852 88.1427 20.224 88.392 20.4315C88.6413 20.639 88.8321 20.9079 88.9457 21.2116C89.0593 21.5154 89.0917 21.8435 89.0397 22.1637C88.1007 27.9525 85.2044 33.4014 80.7455 37.8896L90.0345 37.9461C90.3587 37.948 90.6769 38.0345 90.9576 38.197C91.2382 38.3595 91.4716 38.5923 91.6348 38.8726C91.7979 39.1528 91.8852 39.4708 91.888 39.7951C91.8907 40.1193 91.8088 40.4387 91.6504 40.7217C89.3176 44.8897 85.8853 48.3843 81.5953 50.994L92.7104 54.597C93.0189 54.697 93.2959 54.8758 93.5142 55.1155C93.7324 55.3553 93.8844 55.6479 93.9551 55.9643C94.0258 56.2808 94.0128 56.6102 93.9174 56.9201C93.8219 57.2299 93.6473 57.5096 93.4108 57.7314C88.3679 62.4589 81.7279 65.0922 74.1348 65.393C71.7642 79.6631 59.4198 90.2292 44.772 90.2292ZM44.772 34.4153C30.4121 34.4153 18.7296 46.0978 18.7296 60.4577C18.7296 74.8173 30.4121 86.4999 44.772 86.4999C58.0684 86.4999 69.1948 76.5486 70.6527 63.3519C70.7032 62.8955 70.9203 62.4739 71.2623 62.1676C71.6043 61.8613 72.0472 61.692 72.5063 61.6919H72.5143L72.6598 61.6922C78.6532 61.6922 83.9958 60.1109 88.3026 57.0891L76.1895 53.1624C75.8288 53.0455 75.5122 52.8214 75.2821 52.5199C75.052 52.2184 74.9193 51.854 74.9017 51.4751C74.884 51.0963 74.9823 50.7211 75.1834 50.3996C75.3846 50.078 75.6789 49.8255 76.0273 49.6756C80.3733 47.8052 83.9691 45.064 86.5817 41.6551L75.786 41.5896C75.3956 41.5872 75.0158 41.4623 74.7002 41.2326C74.3845 41.0029 74.149 40.68 74.0266 40.3093C73.9043 39.9386 73.9014 39.5388 74.0183 39.1664C74.1352 38.7939 74.366 38.4676 74.6783 38.2333C79.6152 34.5282 82.9997 29.9225 84.6029 24.7738L54.0807 35.6852C53.6912 35.8241 53.2666 35.8299 52.8734 35.7017C50.2579 34.8473 47.5235 34.4131 44.772 34.4153Z" fill="white"/>
<path d="M51.9342 74.4088H51.9337C48.4274 74.4086 45.0074 73.1874 42.3032 70.9704C42.07 70.7792 41.8867 70.5343 41.7689 70.2567C41.6511 69.979 41.6025 69.677 41.6271 69.3764C41.6517 69.0759 41.7488 68.7858 41.9101 68.531C42.0714 68.2762 42.2921 68.0643 42.5533 67.9135L64.1147 55.4645C64.3759 55.3138 64.6697 55.2287 64.971 55.2164C65.2722 55.2041 65.572 55.2651 65.8446 55.394C66.1171 55.523 66.3544 55.7161 66.5359 55.9569C66.7175 56.1976 66.838 56.4788 66.8871 56.7763C67.9066 62.9679 64.9392 69.2365 59.5036 72.3752C57.199 73.7053 54.5817 74.4088 51.9342 74.4088ZM47.0839 69.6038C48.603 70.311 50.2581 70.678 51.9337 70.679C53.937 70.6765 55.9044 70.1474 57.6386 69.1446C60.899 67.2622 62.982 63.8867 63.3107 60.2346L47.0839 69.6038ZM31.5703 73.1789C29.6538 73.177 27.7715 72.6713 26.1121 71.7126C22.1929 69.4496 20.0537 64.9299 20.7889 60.4656C20.8379 60.168 20.9582 59.8867 21.1398 59.6459C21.3213 59.405 21.5586 59.2118 21.8312 59.0828C22.1038 58.9538 22.4037 58.8929 22.705 58.9053C23.0064 58.9177 23.3002 59.003 23.5613 59.1539L38.2635 67.6426C38.5247 67.7934 38.7454 68.0053 38.9067 68.26C39.068 68.5148 39.1652 68.8049 39.1898 69.1055C39.2144 69.4061 39.1657 69.7081 39.0479 69.9857C38.9302 70.2634 38.7469 70.5083 38.5137 70.6995C36.5543 72.3018 34.1014 73.1777 31.5703 73.1789ZM24.6147 64.0686C25.0976 65.8927 26.2858 67.5062 27.9769 68.4826C29.0692 69.1142 30.3085 69.4476 31.5703 69.4493C32.2174 69.4491 32.8615 69.362 33.4854 69.1904L24.6147 64.0686Z" fill="white"/>
</svg>
