<svg width="100" height="100" viewBox="0 0 100 100" fill="none" xmlns="http://www.w3.org/2000/svg">
<path d="M49.4997 43.0466C52.2889 40.1966 55.9206 38.332 60.1455 38.332C64.5824 38.332 68.8375 40.0946 71.9748 43.2319C75.1121 46.3692 76.8747 50.6244 76.8747 55.0612V77.8737H70.7913V55.0612C70.7913 52.2378 69.6697 49.5299 67.6733 47.5335C65.6768 45.537 62.969 44.4154 60.1455 44.4154C57.3221 44.4154 54.6143 45.537 52.6178 47.5335C50.6213 49.5299 49.4997 52.2378 49.4997 55.0612V77.8737H43.4163V39.8529H49.4997V43.0466ZM28.208 33.7695C26.998 33.7695 25.8375 33.2888 24.9818 32.4332C24.1262 31.5776 23.6455 30.4171 23.6455 29.207C23.6455 27.997 24.1262 26.8365 24.9818 25.9809C25.8375 25.1252 26.998 24.6445 28.208 24.6445C29.4181 24.6445 30.5785 25.1252 31.4342 25.9809C32.2898 26.8365 32.7705 27.997 32.7705 29.207C32.7705 30.4171 32.2898 31.5776 31.4342 32.4332C30.5785 33.2888 29.4181 33.7695 28.208 33.7695ZM25.1663 39.8529H31.2497V77.8737H25.1663V39.8529Z" fill="white"/>
</svg>
