<svg width="96" height="44" viewBox="0 0 96 44" fill="none" xmlns="http://www.w3.org/2000/svg">
<path d="M87.3043 12C87.3043 28.1404 87.3043 34.0585 87.3043 35M87.3043 12L80 20.2719M87.3043 12L94 20.2719" stroke="url(#paint0_linear_410_4280)" stroke-width="2.5" stroke-linecap="round"/>
<path d="M11.5568 35.358C9.86932 35.358 8.36506 35.0682 7.04403 34.4886C5.73153 33.9091 4.6875 33.1037 3.91193 32.0724C3.14489 31.0327 2.72727 29.8267 2.65909 28.4545H5.88068C5.94886 29.2983 6.23864 30.027 6.75 30.6406C7.26136 31.2457 7.9304 31.7145 8.7571 32.0469C9.58381 32.3793 10.5 32.5455 11.5057 32.5455C12.6307 32.5455 13.6278 32.3494 14.4972 31.9574C15.3665 31.5653 16.0483 31.0199 16.5426 30.321C17.0369 29.6222 17.2841 28.8125 17.2841 27.892C17.2841 26.929 17.0455 26.081 16.5682 25.348C16.0909 24.6065 15.392 24.027 14.4716 23.6094C13.5511 23.1918 12.4261 22.983 11.0966 22.983H9V20.1705H11.0966C12.1364 20.1705 13.0483 19.983 13.8324 19.608C14.625 19.233 15.2429 18.7045 15.6861 18.0227C16.1378 17.3409 16.3636 16.5398 16.3636 15.6193C16.3636 14.733 16.1676 13.9616 15.7756 13.3054C15.3835 12.6491 14.8295 12.1378 14.1136 11.7713C13.4063 11.4048 12.571 11.2216 11.608 11.2216C10.7045 11.2216 9.85227 11.3878 9.05114 11.7202C8.25852 12.044 7.6108 12.517 7.10795 13.1392C6.60511 13.7528 6.33239 14.4943 6.28977 15.3636H3.22159C3.27273 13.9915 3.68608 12.7898 4.46165 11.7585C5.23722 10.7187 6.25142 9.90909 7.50426 9.32955C8.76563 8.75 10.1506 8.46023 11.6591 8.46023C13.2784 8.46023 14.6676 8.78835 15.8267 9.4446C16.9858 10.0923 17.8764 10.9489 18.4986 12.0142C19.1207 13.0795 19.4318 14.2301 19.4318 15.4659C19.4318 16.9403 19.044 18.1974 18.2685 19.2372C17.5014 20.277 16.4574 20.9972 15.1364 21.3977V21.6023C16.7898 21.875 18.081 22.5781 19.0099 23.7116C19.9389 24.8366 20.4034 26.2301 20.4034 27.892C20.4034 29.3153 20.0156 30.5938 19.2401 31.7273C18.473 32.8523 17.4247 33.7386 16.0952 34.3864C14.7656 35.0341 13.2528 35.358 11.5568 35.358ZM27.0735 35.2045C26.4428 35.2045 25.9016 34.9787 25.4499 34.527C24.9982 34.0753 24.7724 33.5341 24.7724 32.9034C24.7724 32.2727 24.9982 31.7315 25.4499 31.2798C25.9016 30.8281 26.4428 30.6023 27.0735 30.6023C27.7042 30.6023 28.2454 30.8281 28.6971 31.2798C29.1488 31.7315 29.3746 32.2727 29.3746 32.9034C29.3746 33.321 29.2681 33.7045 29.055 34.054C28.8505 34.4034 28.5735 34.6847 28.2241 34.8977C27.8832 35.1023 27.4996 35.2045 27.0735 35.2045ZM42.392 35.358C40.892 35.358 39.5412 35.0597 38.3395 34.4631C37.1378 33.8665 36.1747 33.0483 35.4503 32.0085C34.7259 30.9688 34.3295 29.7841 34.2614 28.4545H37.3295C37.4489 29.6392 37.9858 30.6193 38.9403 31.3949C39.9034 32.1619 41.054 32.5455 42.392 32.5455C43.4659 32.5455 44.4205 32.294 45.2557 31.7912C46.0994 31.2884 46.7599 30.598 47.2372 29.7202C47.723 28.8338 47.9659 27.8324 47.9659 26.7159C47.9659 25.5739 47.7145 24.5554 47.2116 23.6605C46.7173 22.7571 46.0355 22.0455 45.1662 21.5256C44.2969 21.0057 43.304 20.7415 42.1875 20.733C41.3864 20.7244 40.5639 20.848 39.7202 21.1037C38.8764 21.3509 38.1818 21.6705 37.6364 22.0625L34.6705 21.7045L36.2557 8.81818H49.858V11.6307H38.9148L37.9943 19.3523H38.1477C38.6847 18.9261 39.358 18.5724 40.1676 18.2912C40.9773 18.0099 41.821 17.8693 42.6989 17.8693C44.3011 17.8693 45.7287 18.2528 46.9815 19.0199C48.2429 19.7784 49.2315 20.8182 49.9474 22.1392C50.6719 23.4602 51.0341 24.9687 51.0341 26.6648C51.0341 28.3352 50.6591 29.8267 49.9091 31.1392C49.1676 32.4432 48.1449 33.4744 46.8409 34.233C45.5369 34.983 44.054 35.358 42.392 35.358ZM58.9762 27.8409L58.9251 24.108H59.5387L68.1296 15.3636H71.8626L62.7092 24.6193H62.4535L58.9762 27.8409ZM56.1637 35V8.81818H59.1808V35H56.1637ZM68.641 35L60.9705 25.2841L63.1183 23.1875L72.4762 35H68.641Z" fill="#E7EFED"/>
<defs>
<linearGradient id="paint0_linear_410_4280" x1="87" y1="12" x2="87" y2="35" gradientUnits="userSpaceOnUse">
<stop stop-color="#19DAB5"/>
<stop offset="1" stop-color="#19DAB5" stop-opacity="0"/>
</linearGradient>
</defs>
</svg>
