<svg width="60" height="60" viewBox="0 0 60 60" fill="none" xmlns="http://www.w3.org/2000/svg">
<path d="M51.8084 16.0143L32.8961 6.29415C31.3598 5.50197 29.3922 5.50197 27.8799 6.29415L8.99219 16.0143C7.45586 16.8065 6.49609 18.2942 6.49609 19.902V39.3422C6.49609 40.9506 7.45586 42.4143 8.99219 43.2065L27.8799 52.9266C28.648 53.3104 29.5117 53.5266 30.376 53.5266C31.2643 53.5266 32.1279 53.3104 32.8721 52.9266L51.7598 43.2065C53.2955 42.4143 54.2559 40.9266 54.2559 39.3422V19.902C54.3039 18.2942 53.3441 16.8059 51.8084 16.0143ZM51.1363 39.3182C51.1363 39.9182 50.7766 40.4461 50.2006 40.7584L31.3123 50.4779C30.7604 50.7656 30.0162 50.7656 29.4643 50.4779L10.5766 40.7578C10.0006 40.4695 9.64023 39.9176 9.64023 39.3176V19.8779C9.64023 19.2779 10 18.75 10.5766 18.4377L29.4648 8.71759C29.7525 8.57345 30.0648 8.50138 30.4006 8.50138C30.7363 8.50138 31.0486 8.57345 31.3129 8.71759L50.2252 18.4377C50.8012 18.7254 51.1609 19.2779 51.1609 19.8779V39.3176H51.1363V39.3182ZM46.7201 20.0221L31.5045 27.4143C31.3603 27.4863 31.2162 27.5584 31.0721 27.6539C30.6402 27.7981 30.1363 27.7981 29.7039 27.6299C29.5838 27.5578 29.4643 27.4858 29.3201 27.4137L14.5838 20.0215C13.8396 19.6377 12.8559 19.8774 12.424 20.5494C12.0643 21.1014 12.1838 21.7735 12.6637 22.2053C12.7598 22.3014 12.9039 22.3975 13.0475 22.469L14.5832 23.2371L27.9525 30.0059C27.9766 30.0299 28.0246 30.0299 28.0486 30.0539C28.4811 30.3656 28.7447 30.8461 28.7447 31.35L28.8168 46.4942V46.6383C28.8168 46.6623 28.8168 46.6863 28.8408 46.7104V46.7824C28.8408 46.8065 28.8648 46.8305 28.8648 46.8545C28.8648 46.8785 28.8648 46.9026 28.8889 46.9266C28.8889 46.9506 28.9129 46.9746 28.9129 46.9746C28.9129 46.9986 28.9369 47.0227 28.9369 47.0467C28.9369 47.0707 28.9609 47.0707 28.9609 47.0947C28.985 47.1188 28.985 47.1428 29.009 47.1908V47.2149C29.2492 47.5986 29.7051 47.8869 30.233 47.935H30.4012C30.8811 47.935 31.3375 47.7428 31.6252 47.407C31.8414 47.1674 31.985 46.8551 31.985 46.4953V45.535L32.033 31.3752C32.033 30.8953 32.2732 30.4635 32.657 30.1512C32.7051 30.1272 32.7771 30.1031 32.8252 30.0791L48.233 22.5434C49.0012 22.1596 49.2889 21.3193 48.857 20.6233C48.448 19.902 47.4883 19.6383 46.7201 20.0221Z" fill="#15BE9C"/>
</svg>
