<svg width="89" height="44" viewBox="0 0 89 44" fill="none" xmlns="http://www.w3.org/2000/svg">
<path d="M11.9148 8.81818V35H8.74432V12.142H8.59091L2.19886 16.3864V13.1648L8.74432 8.81818H11.9148ZM27.9844 35.358C26.0582 35.358 24.4176 34.8338 23.0625 33.7855C21.7074 32.7287 20.6719 31.1989 19.956 29.196C19.2401 27.1847 18.8821 24.7557 18.8821 21.9091C18.8821 19.0795 19.2401 16.6634 19.956 14.6605C20.6804 12.6491 21.7202 11.1151 23.0753 10.0582C24.4389 8.9929 26.0753 8.46023 27.9844 8.46023C29.8935 8.46023 31.5256 8.9929 32.8807 10.0582C34.2443 11.1151 35.2841 12.6491 36 14.6605C36.7244 16.6634 37.0866 19.0795 37.0866 21.9091C37.0866 24.7557 36.7287 27.1847 36.0128 29.196C35.2969 31.1989 34.2614 32.7287 32.9062 33.7855C31.5511 34.8338 29.9105 35.358 27.9844 35.358ZM27.9844 32.5455C29.8935 32.5455 31.3764 31.625 32.4332 29.7841C33.4901 27.9432 34.0185 25.3182 34.0185 21.9091C34.0185 19.642 33.7756 17.7116 33.2898 16.1179C32.8125 14.5241 32.1222 13.3097 31.2188 12.4744C30.3239 11.6392 29.2457 11.2216 27.9844 11.2216C26.0923 11.2216 24.6136 12.1548 23.5483 14.0213C22.483 15.8793 21.9503 18.5085 21.9503 21.9091C21.9503 24.1761 22.1889 26.1023 22.6662 27.6875C23.1435 29.2727 23.8295 30.4787 24.7244 31.3054C25.6278 32.1321 26.7145 32.5455 27.9844 32.5455ZM44.8082 27.8409L44.7571 24.108H45.3707L53.9616 15.3636H57.6946L48.5412 24.6193H48.2855L44.8082 27.8409ZM41.9957 35V8.81818H45.0128V35H41.9957ZM54.473 35L46.8026 25.2841L48.9503 23.1875L58.3082 35H54.473Z" fill="#E7EFED"/>
<path d="M80.3043 12C80.3043 28.1404 80.3043 34.0585 80.3043 35M80.3043 12L73 20.2719M80.3043 12L87 20.2719" stroke="url(#paint0_linear_410_4279)" stroke-width="2.5" stroke-linecap="round"/>
<defs>
<linearGradient id="paint0_linear_410_4279" x1="80" y1="12" x2="80" y2="35" gradientUnits="userSpaceOnUse">
<stop stop-color="#19DAB5"/>
<stop offset="1" stop-color="#19DAB5" stop-opacity="0"/>
</linearGradient>
</defs>
</svg>
