<svg width="60" height="60" viewBox="0 0 60 60" fill="none" xmlns="http://www.w3.org/2000/svg">
<path d="M9.6 49.9H50.4C54.6 49.9 58 46.5 58 42.3V11.5C58 7.30002 54.6 3.90002 50.4 3.90002H9.6C5.4 3.90002 2 7.30002 2 11.5V42.3C2 46.5 5.4 49.9 9.6 49.9ZM50.4 6.90002C52.9 6.90002 55 9.00002 55 11.5V42.3C55 44.8 52.9 46.9 50.4 46.9H9.6C7.1 46.9 5 44.8 5 42.3V11.5C5 9.00002 7.1 6.90002 9.6 6.90002H50.4Z" fill="#0AAE8F"/>
<path d="M36.7998 34.1C37.5998 34.1 38.2998 33.4 38.2998 32.6V19.7C38.2998 18.9 37.5998 18.2 36.7998 18.2C35.9998 18.2 35.2998 18.9 35.2998 19.7V32.6C35.2998 33.5 35.9998 34.1 36.7998 34.1Z" fill="#0AAE8F"/>
<path d="M23.8998 21.2H36.7998C37.5998 21.2 38.2998 20.5 38.2998 19.7C38.2998 18.9 37.5998 18.2 36.7998 18.2H23.8998C23.0998 18.2 22.3998 18.9 22.3998 19.7C22.3998 20.5 23.0998 21.2 23.8998 21.2Z" fill="#0AAE8F"/>
<path d="M23.2 35.6C23.6 35.6 24 35.4 24.3 35.1L36.8 21.6C37.4 21 37.3 20 36.7 19.5C36.1 18.9 35.1 19 34.6 19.6L22.1 33.1C21.5 33.7 21.6 34.7 22.2 35.2C22.5 35.5 22.8 35.6 23.2 35.6Z" fill="#0AAE8F"/>
<path d="M13.5 56.1H46.5C47.3 56.1 48 55.4 48 54.6C48 53.8 47.3 53.1 46.5 53.1H13.4C12.6 53.1 11.9 53.8 11.9 54.6C11.9 55.4 12.6 56.1 13.5 56.1Z" fill="#0AAE8F"/>
</svg>
