<svg width="60" height="60" viewBox="0 0 60 60" fill="none" xmlns="http://www.w3.org/2000/svg">
<path d="M30.2996 55.9499C44.6309 55.9499 56.2495 44.3314 56.2495 29.9999C56.2495 15.6682 44.631 4.04999 30.2996 4.04999C15.9678 4.04999 4.34961 15.6682 4.34961 29.9999C4.34961 44.3313 15.9678 55.9499 30.2996 55.9499ZM30.2996 52.2426C18.0151 52.2426 8.05666 42.2843 8.05666 29.9999C8.05666 17.7155 18.0151 7.75704 30.2996 7.75704C42.584 7.75704 52.5423 17.7155 52.5423 29.9999C52.5423 42.2844 42.584 52.2426 30.2996 52.2426ZM30.6997 14.2964C27.4969 14.2964 25.0058 15.2752 23.2263 17.2326C21.447 19.1009 20.6016 21.5921 20.6016 24.7061H24.116C24.116 22.5263 24.6053 20.8359 25.5841 19.5903C26.6518 18.1222 28.2977 17.4105 30.5219 17.4105C32.3902 17.4105 33.8585 17.8999 34.8816 18.9674C35.8604 19.9461 36.3939 21.3252 36.3939 23.1046C36.3939 24.3503 35.9492 25.5069 35.0594 26.619C34.7928 26.9748 34.2587 27.5088 33.5471 28.2204C31.1448 30.3558 29.6767 32.0463 29.0538 33.381C28.5201 34.4931 28.2532 35.7831 28.2532 37.2511V38.2745H31.8119V37.2511C31.8119 36.05 32.079 34.9821 32.6574 34.0036C33.1021 33.2029 33.7695 32.4019 34.748 31.557C36.7053 29.8219 37.9068 28.6653 38.3515 28.1315C39.4636 26.6634 40.0419 24.9285 40.0419 22.9266C40.0419 20.2575 39.1967 18.1667 37.5508 16.6541C35.8155 15.0528 33.5471 14.2964 30.6997 14.2964ZM30.0327 41.3884C29.2764 41.3884 28.6537 41.6108 28.1197 42.1446C27.586 42.6336 27.3636 43.2567 27.3636 44.0129C27.3636 44.769 27.586 45.3922 28.1197 45.9259C28.6537 46.4149 29.2764 46.6821 30.0327 46.6821C30.7891 46.6821 31.4117 46.4149 31.9454 45.9259C32.4792 45.4364 32.7461 44.8135 32.7461 44.0129C32.7461 43.2567 32.4792 42.6336 31.99 42.1446C31.4562 41.6108 30.7891 41.3884 30.0327 41.3884Z" fill="#15BE9C"/>
</svg>
