<svg width="94" height="44" viewBox="0 0 94 44" fill="none" xmlns="http://www.w3.org/2000/svg">
<path d="M85.3043 10C85.3043 26.1404 85.3043 32.0585 85.3043 33M85.3043 10L78 18.2719M85.3043 10L92 18.2719" stroke="url(#paint0_linear_595_4733)" stroke-width="2.5" stroke-linecap="round"/>
<path d="M11.9148 8.81818V35H8.74432V12.142H8.59091L2.19886 16.3864V13.1648L8.74432 8.81818H11.9148ZM27.9844 35.358C26.0582 35.358 24.4176 34.8338 23.0625 33.7855C21.7074 32.7287 20.6719 31.1989 19.956 29.196C19.2401 27.1847 18.8821 24.7557 18.8821 21.9091C18.8821 19.0795 19.2401 16.6634 19.956 14.6605C20.6804 12.6491 21.7202 11.1151 23.0753 10.0582C24.4389 8.9929 26.0753 8.46023 27.9844 8.46023C29.8935 8.46023 31.5256 8.9929 32.8807 10.0582C34.2443 11.1151 35.2841 12.6491 36 14.6605C36.7244 16.6634 37.0866 19.0795 37.0866 21.9091C37.0866 24.7557 36.7287 27.1847 36.0128 29.196C35.2969 31.1989 34.2614 32.7287 32.9062 33.7855C31.5511 34.8338 29.9105 35.358 27.9844 35.358ZM27.9844 32.5455C29.8935 32.5455 31.3764 31.625 32.4332 29.7841C33.4901 27.9432 34.0185 25.3182 34.0185 21.9091C34.0185 19.642 33.7756 17.7116 33.2898 16.1179C32.8125 14.5241 32.1222 13.3097 31.2188 12.4744C30.3239 11.6392 29.2457 11.2216 27.9844 11.2216C26.0923 11.2216 24.6136 12.1548 23.5483 14.0213C22.483 15.8793 21.9503 18.5085 21.9503 21.9091C21.9503 24.1761 22.1889 26.1023 22.6662 27.6875C23.1435 29.2727 23.8295 30.4787 24.7244 31.3054C25.6278 32.1321 26.7145 32.5455 27.9844 32.5455ZM55.2912 30.0909V28.7102C55.2912 27.7557 55.4872 26.8821 55.8793 26.0895C56.2798 25.2884 56.8594 24.6491 57.6179 24.1719C58.3849 23.6861 59.3139 23.4432 60.4048 23.4432C61.5128 23.4432 62.4418 23.6861 63.1918 24.1719C63.9418 24.6491 64.5085 25.2884 64.892 26.0895C65.2756 26.8821 65.4673 27.7557 65.4673 28.7102V30.0909C65.4673 31.0455 65.2713 31.9233 64.8793 32.7244C64.4957 33.517 63.9247 34.1562 63.1662 34.642C62.4162 35.1193 61.4957 35.358 60.4048 35.358C59.2969 35.358 58.3636 35.1193 57.6051 34.642C56.8466 34.1562 56.2713 33.517 55.8793 32.7244C55.4872 31.9233 55.2912 31.0455 55.2912 30.0909ZM57.8991 28.7102V30.0909C57.8991 30.8835 58.0866 31.5952 58.4616 32.2259C58.8366 32.848 59.4844 33.1591 60.4048 33.1591C61.2997 33.1591 61.9304 32.848 62.2969 32.2259C62.6719 31.5952 62.8594 30.8835 62.8594 30.0909V28.7102C62.8594 27.9176 62.6804 27.2102 62.3224 26.5881C61.9645 25.9574 61.3253 25.642 60.4048 25.642C59.5099 25.642 58.8665 25.9574 58.4744 26.5881C58.0909 27.2102 57.8991 27.9176 57.8991 28.7102ZM42.2514 15.108V13.7273C42.2514 12.7727 42.4474 11.8991 42.8395 11.1065C43.2401 10.3054 43.8196 9.66619 44.5781 9.18892C45.3452 8.70312 46.2741 8.46023 47.3651 8.46023C48.473 8.46023 49.402 8.70312 50.152 9.18892C50.902 9.66619 51.4688 10.3054 51.8523 11.1065C52.2358 11.8991 52.4276 12.7727 52.4276 13.7273V15.108C52.4276 16.0625 52.2315 16.9403 51.8395 17.7415C51.456 18.5341 50.8849 19.1733 50.1264 19.6591C49.3764 20.1364 48.456 20.375 47.3651 20.375C46.2571 20.375 45.3239 20.1364 44.5653 19.6591C43.8068 19.1733 43.2315 18.5341 42.8395 17.7415C42.4474 16.9403 42.2514 16.0625 42.2514 15.108ZM44.8594 13.7273V15.108C44.8594 15.9006 45.0469 16.6122 45.4219 17.2429C45.7969 17.8651 46.4446 18.1761 47.3651 18.1761C48.2599 18.1761 48.8906 17.8651 49.2571 17.2429C49.6321 16.6122 49.8196 15.9006 49.8196 15.108V13.7273C49.8196 12.9347 49.6406 12.2273 49.2827 11.6051C48.9247 10.9744 48.2855 10.6591 47.3651 10.6591C46.4702 10.6591 45.8267 10.9744 45.4347 11.6051C45.0511 12.2273 44.8594 12.9347 44.8594 13.7273ZM43.223 35L61.223 8.81818H64.1378L46.1378 35H43.223Z" fill="#E7EFED"/>
<defs>
<linearGradient id="paint0_linear_595_4733" x1="85" y1="10" x2="85" y2="33" gradientUnits="userSpaceOnUse">
<stop stop-color="#19DAB5"/>
<stop offset="1" stop-color="#19DAB5" stop-opacity="0"/>
</linearGradient>
</defs>
</svg>
